<svg xmlns="http://www.w3.org/2000/svg"
shape-rendering="geometricPrecision"
width="4000" height="4000" viewBox="0 0 1024 1024"><rect width="100%" height="100%" fill="#FDFEFD" />
  <metadata>null</metadata>

<path d="
M 289.294 515.066
C 292.89 518.924 295.558 523.199 299.752 526.56
C 309.912 534.698 321.609 539.417 333.399 544.532
C 350.14 551.795 368.388 557.03 386.155 561.106
C 393.432 562.775 400.905 563.962 408.119 565.853
C 408.702 566.668 408.726 568.046 408.923 569.014
C 409.414 571.426 409.929 573.832 410.419 576.244
C 412.178 584.912 413.662 593.646 415.551 602.288
C 417.813 612.645 419.663 623.096 422.047 633.428
C 424.417 643.703 427.085 653.89 429.587 664.128
C 431.914 673.647 433.868 683.28 436.63 692.684
C 439.422 702.192 441.232 712.269 444.841 721.506
C 445.954 724.354 445.735 727.966 448.244 730.067
C 450.186 739.208 452.96 748.195 455.574 757.155
C 461.614 777.859 469.589 798.091 479.5 817.244
C 483.288 824.566 487.231 831.455 492.46 837.857
C 494.584 840.458 496.764 843.616 499.983 844.946
C 502.72 846.077 506.13 845.696 509.022 845.759
C 512.754 845.84 516.195 846.463 519.901 845.939
C 521.924 845.653 524.274 842.273 525.682 840.921
C 531.77 835.073 536.552 827.449 540.318 819.942
C 554.297 792.078 565.861 762.971 572.819 732.483
C 575.954 728.247 576.615 722.562 578.147 717.641
C 581.645 706.402 584.451 694.851 587.257 683.421
C 593.387 658.451 599.525 633.502 604.862 608.349
C 606.656 599.896 608.536 591.424 610.086 582.924
C 611.123 577.235 611.868 571.371 613.28 565.766
C 642.627 559.979 671.96 552.649 699.172 539.93
C 707.844 535.876 716.022 531.025 723.402 524.899
C 725.82 522.891 727.903 520.526 729.888 518.104
C 730.682 517.135 731.268 515.834 732.18 514.989
C 732.384 514.8 732.937 514.153 733.098 514.467
C 732.952 516.41 731.997 518.002 731.638 519.883
C 731.035 520.565 730.771 521.459 730.348 522.253
C 724.242 532.293 716.176 539.949 706.95 547.058
C 705.294 548.334 703.67 549.751 701.874 550.829
C 689.002 558.691 674.937 563.799 665.774 576.469
C 661.557 582.301 659.492 589.369 657.636 596.218
C 655.147 605.404 653.131 614.725 651.099 624.022
C 645.156 651.226 638.349 678.226 630.307 704.892
C 621.925 732.69 612.494 760.272 601.179 787.027
C 597.567 795.564 593.611 803.955 589.527 812.276
C 587.379 816.653 584.268 821.143 582.759 825.678
C 565.536 836.441 545.556 842.828 525.478 845.334
C 519.243 846.113 513.188 846.735 506.856 846.548
C 503.2 846.441 499.674 845.808 496.067 845.261
C 490.24 844.378 484.423 843.647 478.692 842.204
C 467.773 839.456 457.273 835.214 447.176 830.273
C 444.759 829.091 442.529 827.555 440.117 826.386
C 439.164 824.441 437.443 822.876 436.404 820.942
C 430.998 810.885 426.206 800.332 421.597 789.889
C 413.937 772.532 407.978 754.549 401.604 736.713
C 392.938 712.465 385.847 687.41 379.773 662.393
C 375.489 644.75 371.627 627.029 367.596 609.328
C 365.142 598.553 363.275 586.98 356.913 577.665
C 349.745 567.171 339.726 561.355 328.813 555.446
C 325.991 553.918 323.388 551.843 320.508 550.466
C 317.816 549.308 315.374 547.034 312.95 545.392
C 305.505 540.349 297.372 533.511 292.931 525.539
C 291.215 522.369 289.096 518.775 289.294 515.066 Z"
opacity="1" fill="rgb(48,56,70)" fill-rule="evenodd" />
<path d="
M 292.931 525.539
C 297.372 533.511 305.505 540.349 312.95 545.392
C 315.374 547.034 317.816 549.308 320.508 550.466
C 321.069 551.947 320.697 554.4 320.885 556.03
C 321.301 559.642 322.164 563.252 322.774 566.84
C 324.877 579.224 327.001 591.625 329.477 603.942
C 333.539 624.15 338.305 644.238 343.556 664.166
C 347.773 680.171 351.905 696.276 357.162 711.979
C 361.862 726.018 366.921 739.874 372.309 753.665
C 373.762 757.386 375.321 761.05 376.944 764.697
C 377.386 765.692 378.797 767.459 378.459 768.577
C 377.556 766.752 376.122 765.334 374.935 763.703
C 372.634 760.543 370.482 757.232 368.333 753.966
C 363.15 746.089 358.472 737.869 354.251 729.436
C 331.264 683.51 313.808 634.731 302.62 584.594
C 299.554 570.85 296.285 557.058 294.139 543.135
C 293.609 539.699 293.041 536.259 292.405 532.841
C 292.059 530.979 291.378 528.848 291.513 526.958
C 291.709 526.305 292.188 525.596 292.931 525.539 Z"
opacity="1" fill="rgb(219,223,225)" fill-rule="evenodd" />
<path d="
M 325.001 495.594
C 326.168 496.611 326.682 498.147 327.653 499.342
C 328.878 500.852 330.52 501.98 332.196 502.936
C 339.137 506.895 347.427 508.035 355.219 509.049
C 372.911 511.352 391.742 511.053 409.462 509.054
C 418.947 507.984 428.472 507.162 437.956 506.061
C 440.529 505.762 443.11 505.61 445.694 505.418
C 446.422 505.364 447.799 505.022 448.377 505.439
C 448.659 507.403 449.034 509.191 449.943 510.96
C 449.112 510.211 449.242 511.814 449.225 512.439
C 449.188 513.822 449.34 515.244 449.498 516.617
C 449.953 520.57 449.211 524.611 450.472 528.385
C 448.971 528.939 449.579 532.607 449.622 534.012
C 449.771 538.882 449.878 543.766 449.671 548.635
C 449.621 549.791 448.887 553.06 449.997 553.812
C 438.874 552.461 427.676 551.477 416.635 549.531
C 401.266 546.823 385.992 543.577 370.917 539.557
C 360.43 536.76 349.926 533.772 339.962 529.425
C 338.022 528.578 336.074 527.751 334.161 526.843
C 325.816 522.884 310.815 514.596 316.837 503.232
C 317.563 501.862 318.445 500.585 319.534 499.474
C 321.045 497.932 322.983 496.39 325.001 495.594 Z"
opacity="1" fill="rgb(34,40,54)" fill-rule="evenodd" />
<path d="
M 320.508 550.466
C 323.388 551.843 325.991 553.918 328.813 555.446
C 339.726 561.355 349.745 567.171 356.913 577.665
C 363.275 586.98 365.142 598.553 367.596 609.328
C 371.627 627.029 375.489 644.75 379.773 662.393
C 385.847 687.41 392.938 712.465 401.604 736.713
C 407.978 754.549 413.937 772.532 421.597 789.889
C 426.206 800.332 430.998 810.885 436.404 820.942
C 437.443 822.876 439.164 824.441 440.117 826.386
C 422.715 816.836 406.63 803.152 393.474 788.351
C 388.102 782.307 382.151 775.841 378.459 768.577
C 378.797 767.459 377.386 765.692 376.944 764.697
C 375.321 761.05 373.762 757.386 372.309 753.665
C 366.921 739.874 361.862 726.018 357.162 711.979
C 351.905 696.276 347.773 680.171 343.556 664.166
C 338.305 644.238 333.539 624.15 329.477 603.942
C 327.001 591.625 324.877 579.224 322.774 566.84
C 322.164 563.252 321.301 559.642 320.885 556.03
C 320.697 554.4 321.069 551.947 320.508 550.466 Z"
opacity="1" fill="rgb(169,172,179)" fill-rule="evenodd" />
<path d="
M 443.02 479.475
C 442.227 479.72 442.984 481.073 443.192 481.6
C 444.023 483.705 445.301 485.884 445.756 488.108
C 446.928 493.836 447.303 499.704 448.377 505.439
C 447.799 505.022 446.422 505.364 445.694 505.418
C 443.11 505.61 440.529 505.762 437.956 506.061
C 428.472 507.162 418.947 507.984 409.462 509.054
C 391.742 511.053 372.911 511.352 355.219 509.049
C 347.427 508.035 339.137 506.895 332.196 502.936
C 330.52 501.98 328.878 500.852 327.653 499.342
C 326.682 498.147 326.168 496.611 325.001 495.594
C 326.787 493.243 330.301 492.279 332.988 491.135
C 340.24 488.044 347.995 486.118 355.643 484.292
C 370.287 480.796 385.196 478.493 400.055 476.136
C 404.454 475.438 408.877 474.81 413.256 473.999
C 416.448 473.408 419.827 472.598 423.094 472.75
C 424.291 472.805 425.163 473.465 426.218 473.942
C 427.665 474.597 429.24 475.013 430.711 475.633
C 434.65 477.293 438.88 478.434 443.02 479.475 Z"
opacity="1" fill="rgb(109,115,126)" fill-rule="evenodd" />
<path d="
M 350.089 320.288
C 347.44 331.105 348.551 342.543 346.088 353.403
C 345.569 355.691 344.497 357.55 343.185 359.468
C 342.491 360.482 341.366 361.451 340.975 362.633
C 340.438 364.261 340.902 366.059 340.074 367.639
C 339.516 367.981 338.893 367.632 338.384 367.352
C 334.663 363.989 334.91 371.494 334.116 373.022
C 333.91 363.362 334.073 353.698 334.102 344
C 334.11 341.001 334.104 338 334.089 335
C 334.081 333.507 333.818 331.8 334.158 330.354
C 337.841 327.451 341.786 324.925 345.802 322.51
C 346.677 321.984 349.056 319.973 350.089 320.288 Z"
opacity="1" fill="rgb(87,92,103)" fill-rule="evenodd" />
<path d="
M 334.1 381.01
C 334.919 382.208 334.497 384.103 334.491 385.483
C 334.474 389.333 334.092 393.176 334.106 397.02
C 333.539 395.6 333.766 394.058 333.713 392.568
C 333.575 388.651 333.918 384.872 334.1 381.01 Z"
opacity="1" fill="rgb(87,92,103)" fill-rule="evenodd" />
<path d="
M 334.106 397.02
C 334.092 393.176 334.474 389.333 334.491 385.483
C 334.497 384.103 334.919 382.208 334.1 381.01
C 334.117 378.348 334.094 375.685 334.116 373.022
C 334.91 371.494 334.663 363.989 338.384 367.352
C 338.893 367.632 339.516 367.981 340.074 367.639
C 340.902 366.059 340.438 364.261 340.975 362.633
C 341.366 361.451 342.491 360.482 343.185 359.468
C 344.497 357.55 345.569 355.691 346.088 353.403
C 348.551 342.543 347.44 331.105 350.089 320.288
C 351.042 318.641 353.586 317.604 355.356 317.12
C 355.969 316.952 356.791 315.882 357.128 316.42
C 357.208 320.335 356.191 324.515 355.932 328.448
C 355.24 338.974 354.686 349.446 354.744 360.002
C 354.762 365.169 354.742 370.337 354.779 375.502
C 354.83 385.002 354.875 394.503 354.913 404.003
C 354.922 406.296 354.839 408.613 354.96 410.904
C 354.979 411.267 355.252 412.72 354.963 412.868
C 352.549 412.428 349.853 410.122 347.824 408.798
C 343.266 405.823 338.736 402.84 334.248 399.76
C 333.654 399.017 334.109 397.916 334.106 397.02 Z"
opacity="1" fill="rgb(2,4,15)" fill-rule="evenodd" />
<path d="
M 357.128 316.42
C 357.491 313.521 359.454 310.441 360.611 307.774
C 363.757 300.517 367.303 293.453 371.449 286.714
C 382.686 268.447 396.968 252.639 413.944 239.534
C 419.776 235.031 426.217 231.262 432.493 227.425
C 438.253 223.903 444.488 221.131 450.636 218.375
C 452.45 217.562 454.537 217.294 456.264 216.358
C 456.485 216.3 455.242 217.818 455.033 218.032
C 454.192 218.891 453.362 219.759 452.542 220.64
C 449.809 223.579 447.237 226.624 444.678 229.714
C 437.32 238.602 431.83 249.595 428.577 260.657
C 429.737 260.898 431.95 259.16 432.98 258.605
C 436.603 256.653 440.55 254.743 444.445 253.415
C 458.651 248.572 472.868 244.358 487.85 242.75
C 511.575 240.203 536.37 240.89 559.4 247.666
C 565.753 249.536 572.514 251.439 578.531 254.192
C 583.436 256.436 588.204 259.664 593.346 261.299
C 593.402 260.416 592.648 259.336 592.437 258.457
C 591.602 254.965 589.866 251.687 588.305 248.471
C 584.274 240.168 579.73 232.786 573.767 225.714
C 571.603 223.147 569.16 220.79 566.806 218.399
C 565.815 217.393 564.517 216.504 563.716 215.35
C 566.547 215.815 569.535 217.724 572.161 218.892
C 577.236 221.149 582.314 223.249 587.222 225.865
C 610.952 238.515 631.631 257.126 646.325 279.692
C 651.329 287.376 655.716 295.303 659.494 303.658
C 660.703 306.333 661.825 309.054 662.972 311.757
C 663.716 313.51 664.411 315.257 666.03 316.4
C 665.742 316.296 665.415 315.907 665.167 316.086
C 665.046 316.174 665.23 317.592 665.271 317.866
C 665.571 319.881 665.714 321.902 665.844 323.935
C 666.19 329.361 666.251 334.798 666.368 340.232
C 666.718 356.482 666.63 372.742 666.961 388.996
C 666.703 389.309 666.02 390.423 665.552 390.159
C 665.173 389.945 664.961 389.436 664.486 389.367
C 663.551 389.232 663.184 391.411 663.133 392.003
C 662.935 385.791 662.218 379.556 661.742 373.361
C 661.616 371.715 661.434 370.095 661.309 368.447
C 661.274 367.984 661.335 367.237 660.951 366.919
C 660.671 369.623 659.708 372.311 659.147 374.977
C 658.271 379.141 657.727 383.406 656.249 387.418
C 655.169 390.352 653.056 392.888 652.106 395.767
C 651.935 396.286 651.087 396.511 650.857 395.966
C 652.031 387.67 651.202 379.077 650.031 370.83
C 646.741 347.674 635.619 324.281 618.729 307.937
C 606.278 295.887 591.575 287.037 575.678 280.355
C 562.768 274.929 549.215 271.83 535.389 269.885
C 485.703 262.895 429.579 276.946 396.207 316.122
C 391.823 321.269 388.215 327.131 384.926 333.02
C 379.787 342.221 376.372 352.104 373.991 362.332
C 371.178 374.416 370.837 386.348 372.361 398.602
C 371.692 398.045 371.452 397.023 371.029 396.27
C 370.162 394.73 369.345 393.329 368.706 391.677
C 366.669 386.405 365.379 380.691 363.956 375.225
C 363.475 373.378 363.3 369.905 362.109 368.472
C 361.82 371.969 361.231 375.484 360.58 378.932
C 360.56 377.537 360.342 378.83 359.68 378.303
C 359.356 378.046 359.527 377.335 358.949 377.519
C 358.406 377.693 357.401 378.595 356.881 378.294
C 355.961 377.761 355.527 376.382 355.234 375.437
C 355.334 371.962 355.093 368.473 354.947 365.001
C 354.879 363.382 355.159 361.579 354.744 360.002
C 354.686 349.446 355.24 338.974 355.932 328.448
C 356.191 324.515 357.208 320.335 357.128 316.42 Z"
opacity="1" fill="rgb(220,224,227)" fill-rule="evenodd" />
<path d="
M 359.052 394.457
C 360.479 395.592 360.823 397.811 361.467 399.498
C 362.749 402.857 364.266 406.249 365.924 409.44
C 371.32 419.829 377.326 429.141 387.099 435.853
C 409.762 451.42 435.585 461.43 462.424 467.021
C 482.991 471.305 504.429 473.861 525.469 472.034
C 561.526 468.903 596.413 459.037 627.641 440.505
C 637.691 434.541 646.94 426.622 652.683 416.321
C 655.458 411.342 657.525 406.069 659.463 400.725
C 659.996 399.258 660.447 397.732 660.732 396.197
C 660.829 395.67 660.91 394.795 661.441 394.481
C 661.903 394.207 662.465 395.014 663.139 394.486
C 663.66 404.353 664.001 414.455 663.725 424.332
C 660.745 428.774 655.568 432.103 651.478 435.439
C 643.133 442.246 634.442 448.747 625.179 454.273
C 622.085 456.119 618.983 458.017 615.755 459.622
C 614.149 460.421 612.083 460.93 610.804 462.237
C 606.783 463.262 602.904 465.676 599.171 467.449
C 595.307 469.284 591.233 470.812 587.202 472.238
C 570.448 478.164 553.054 482.17 535.433 484.524
C 513.532 487.449 491.471 486.041 469.846 481.7
C 464.206 480.568 458.58 479.673 453.05 478.05
C 444.028 475.403 435.113 472.333 426.371 468.883
C 422.474 467.346 418.631 464.875 414.642 463.705
C 413.3 462.573 411.267 462.036 409.712 461.227
C 406.511 459.564 403.255 457.944 400.177 456.061
C 389.746 449.678 379.533 442.838 370.15 434.974
C 367.23 432.527 364.306 430.114 361.539 427.492
C 360.443 426.453 358.784 425.217 358.144 423.823
C 357.036 421.406 358.007 417.195 358.161 414.601
C 358.559 407.92 358.21 401.101 359.052 394.457 Z"
opacity="1" fill="rgb(122,126,134)" fill-rule="evenodd" />
<path d="
M 360.58 378.932
C 361.231 375.484 361.82 371.969 362.109 368.472
C 363.3 369.905 363.475 373.378 363.956 375.225
C 365.379 380.691 366.669 386.405 368.706 391.677
C 369.345 393.329 370.162 394.73 371.029 396.27
C 371.452 397.023 371.692 398.045 372.361 398.602
C 373.251 401.763 373.989 404.632 375.713 407.478
C 379.851 414.308 387.224 418.624 393.874 422.7
C 403.268 428.458 413.572 432.826 423.96 436.44
C 477.114 454.931 536.725 454.401 590.483 438.813
C 604.416 434.773 618.232 428.668 630.517 420.94
C 636.733 417.029 643.491 412.666 647.322 406.181
C 649.09 403.189 650.184 399.358 650.857 395.966
C 651.087 396.511 651.935 396.286 652.106 395.767
C 653.056 392.888 655.169 390.352 656.249 387.418
C 657.727 383.406 658.271 379.141 659.147 374.977
C 659.708 372.311 660.671 369.623 660.951 366.919
C 661.335 367.237 661.274 367.984 661.309 368.447
C 661.434 370.095 661.616 371.715 661.742 373.361
C 662.218 379.556 662.935 385.791 663.133 392.003
C 663.161 392.831 663.131 393.658 663.139 394.486
C 662.465 395.014 661.903 394.207 661.441 394.481
C 660.91 394.795 660.829 395.67 660.732 396.197
C 660.447 397.732 659.996 399.258 659.463 400.725
C 657.525 406.069 655.458 411.342 652.683 416.321
C 646.94 426.622 637.691 434.541 627.641 440.505
C 596.413 459.037 561.526 468.903 525.469 472.034
C 504.429 473.861 482.991 471.305 462.424 467.021
C 435.585 461.43 409.762 451.42 387.099 435.853
C 377.326 429.141 371.32 419.829 365.924 409.44
C 364.266 406.249 362.749 402.857 361.467 399.498
C 360.823 397.811 360.479 395.592 359.052 394.457
C 358.773 389.262 359.555 384.021 360.58 378.932 Z"
opacity="1" fill="rgb(170,174,177)" fill-rule="evenodd" />
<path d="
M 650.857 395.966
C 650.184 399.358 649.09 403.189 647.322 406.181
C 643.491 412.666 636.733 417.029 630.517 420.94
C 618.232 428.668 604.416 434.773 590.483 438.813
C 536.725 454.401 477.114 454.931 423.96 436.44
C 413.572 432.826 403.268 428.458 393.874 422.7
C 387.224 418.624 379.851 414.308 375.713 407.478
C 373.989 404.632 373.251 401.763 372.361 398.602
C 370.837 386.348 371.178 374.416 373.991 362.332
C 376.372 352.104 379.787 342.221 384.926 333.02
C 388.215 327.131 391.823 321.269 396.207 316.122
C 429.579 276.946 485.703 262.895 535.389 269.885
C 549.215 271.83 562.768 274.929 575.678 280.355
C 591.575 287.037 606.278 295.887 618.729 307.937
C 635.619 324.281 646.741 347.674 650.031 370.83
C 651.202 379.077 652.031 387.67 650.857 395.966 Z
M 398.943 349.141
C 398.887 349.315 398.83 349.489 398.774 349.664
C 399.067 350.035 400.278 348.788 400.556 348.558
C 402.418 347.011 404.411 345.598 406.438 344.27
C 411.531 340.934 416.793 337.901 422.284 335.27
C 439.258 327.136 457.214 321.653 475.802 318.727
C 515.363 312.501 557.181 316.91 594.231 332.289
C 601.672 335.377 608.675 339.461 615.409 343.859
C 618.295 345.744 620.995 348.418 624.104 349.888
C 624.166 349.891 623.346 347.844 623.22 347.524
C 622.526 345.759 621.949 343.947 621.154 342.221
C 617.83 334.999 613.693 328.079 608.326 322.162
C 603.084 316.383 597.577 310.885 591.309 306.197
C 580.728 298.283 568.011 292.459 555.343 288.791
C 544.001 285.508 532.376 283.203 520.592 282.335
C 484.534 279.678 444.014 290.689 418.686 317.606
C 413.215 323.42 407.947 329.876 404.21 336.96
C 402.122 340.918 400.836 345.128 398.943 349.141 Z
M 420.485 362.62
C 420.161 367.353 420.712 372.3 423.114 376.468
C 428.719 386.19 442.589 388.814 452.775 389.822
C 455.82 390.124 458.955 390.414 462.014 390.199
C 464.567 390.02 467.667 390.001 470.093 389.165
C 478.331 386.328 484.322 379.518 484.912 370.733
C 485.843 356.863 476.806 342.932 463.474 338.451
C 445.793 332.508 421.892 342.103 420.485 362.62 Z
M 602.225 369.929
C 602.515 369.128 602.543 368.312 602.563 367.469
C 602.683 360.328 601.309 354.599 596.82 348.924
C 588.124 337.928 571.766 333.257 558.568 338.486
C 550.01 341.877 543.371 348.595 539.72 356.977
C 535.384 366.932 537.664 379.488 546.764 385.743
C 548.578 386.99 550.76 388.474 552.967 388.854
C 556.065 391.064 561.419 390.328 564.99 390.323
C 573.883 390.312 583.72 388.734 591.411 384.082
C 594.315 382.326 597.297 380.17 599.191 377.291
C 599.551 376.641 599.983 376.074 600.289 375.389
C 601.308 373.979 601.85 372.103 602.16 370.409
C 602.182 370.249 602.203 370.089 602.225 369.929 Z"
opacity="1" fill="rgb(1,5,16)" fill-rule="evenodd" />
<path d="
M 398.943 349.141
C 400.836 345.128 402.122 340.918 404.21 336.96
C 407.947 329.876 413.215 323.42 418.686 317.606
C 444.014 290.689 484.534 279.678 520.592 282.335
C 532.376 283.203 544.001 285.508 555.343 288.791
C 568.011 292.459 580.728 298.283 591.309 306.197
C 597.577 310.885 603.084 316.383 608.326 322.162
C 613.693 328.079 617.83 334.999 621.154 342.221
C 621.949 343.947 622.526 345.759 623.22 347.524
C 623.346 347.844 624.166 349.891 624.104 349.888
C 620.995 348.418 618.295 345.744 615.409 343.859
C 608.675 339.461 601.672 335.377 594.231 332.289
C 557.181 316.91 515.363 312.501 475.802 318.727
C 457.214 321.653 439.258 327.136 422.284 335.27
C 416.793 337.901 411.531 340.934 406.438 344.27
C 404.411 345.598 402.418 347.011 400.556 348.558
C 400.278 348.788 399.067 350.035 398.774 349.664
C 398.83 349.489 398.887 349.315 398.943 349.141 Z"
opacity="1" fill="rgb(96,101,112)" fill-rule="evenodd" />
<path d="
M 420.485 362.62
C 421.892 342.103 445.793 332.508 463.474 338.451
C 476.806 342.932 485.843 356.863 484.912 370.733
C 484.322 379.518 478.331 386.328 470.093 389.165
C 467.667 390.001 464.567 390.02 462.014 390.199
C 458.955 390.414 455.82 390.124 452.775 389.822
C 442.589 388.814 428.719 386.19 423.114 376.468
C 420.712 372.3 420.161 367.353 420.485 362.62 Z"
opacity="1" fill="rgb(2,163,234)" fill-rule="evenodd" />
<path d="
M 589.331 655.458
C 589.065 652.524 584.704 656.693 583.828 657.421
C 578.44 661.9 572.887 666.318 566.948 670.051
C 551.534 679.74 534.108 687.645 515.709 688.748
C 495.13 689.982 474.504 681.624 457.186 671.143
C 450.635 667.178 444.594 662.463 438.609 657.71
C 436.777 656.255 434.418 652.744 432.085 654.562
C 428.672 633.939 425.841 613.177 423.582 592.394
C 422.729 584.542 422.441 576.572 421.357 568.761
C 424.066 568.779 426.749 569.61 429.425 569.976
C 434.787 570.71 440.169 571.482 445.547 572.067
C 462.028 573.86 478.473 574.749 495.022 575.534
C 520.737 576.754 546.819 575.097 572.396 572.494
C 581.742 571.543 590.99 569.596 600.331 568.737
C 600.269 578.142 598.655 587.705 597.47 597.023
C 596.1 607.794 595.047 618.589 593.356 629.319
C 592.401 635.382 591.414 641.443 590.494 647.51
C 590.119 649.979 590.325 653.17 589.331 655.458 Z"
opacity="1" fill="rgb(33,38,54)" fill-rule="evenodd" />
<path d="
M 432.085 654.562
C 434.418 652.744 436.777 656.255 438.609 657.71
C 444.594 662.463 450.635 667.178 457.186 671.143
C 474.504 681.624 495.13 689.982 515.709 688.748
C 534.108 687.645 551.534 679.74 566.948 670.051
C 572.887 666.318 578.44 661.9 583.828 657.421
C 584.704 656.693 589.065 652.524 589.331 655.458
C 586.564 668.286 584.486 681.284 581.848 694.145
C 579.211 707.001 575.781 719.75 572.819 732.483
C 565.861 762.971 554.297 792.078 540.318 819.942
C 536.552 827.449 531.77 835.073 525.682 840.921
C 524.274 842.273 521.924 845.653 519.901 845.939
C 516.195 846.463 512.754 845.84 509.022 845.759
C 506.13 845.696 502.72 846.077 499.983 844.946
C 496.764 843.616 494.584 840.458 492.46 837.857
C 487.231 831.455 483.288 824.566 479.5 817.244
C 469.589 798.091 461.614 777.859 455.574 757.155
C 452.96 748.195 450.186 739.208 448.244 730.067
C 447.944 728.177 447.241 726.392 446.791 724.537
C 445.65 719.843 444.733 715.101 443.521 710.423
C 440.408 698.409 438.02 686.171 435.61 673.999
C 434.347 667.621 432.668 661.04 432.085 654.562 Z"
opacity="1" fill="rgb(2,5,17)" fill-rule="evenodd" />
<path d="
M 443.02 479.475
C 450.439 481.313 457.633 483.933 465.126 485.558
C 482.32 489.285 499.824 490.911 517.399 490.328
C 523.696 490.119 530.074 490 536.31 489.003
C 546.679 487.346 556.998 486.022 567.192 483.443
C 569.837 482.774 572.415 481.866 575.054 481.172
C 575.776 480.982 577.256 480.413 577.854 480.886
C 577.012 483.255 575.996 485.908 575.625 488.396
C 575.253 488.241 574.585 489.008 574.263 489.196
C 573.04 489.91 571.777 490.584 570.543 491.284
C 565.816 493.962 561.056 496.858 556.138 499.197
C 550.19 502.025 543.977 503.432 537.607 504.944
C 528.16 507.186 517.84 508.935 508.095 507.985
C 505.421 507.725 502.716 507.807 500.038 507.512
C 493.055 506.742 486.263 505.241 479.466 503.509
C 475.838 502.585 472.112 501.728 468.673 500.21
C 463.274 497.828 458.256 494.828 453.215 491.761
C 452.392 491.26 449.291 488.641 448.484 489.593
C 448.29 489.822 450.292 491.726 450.5 491.996
C 452.835 495.029 455.833 497.547 459.048 499.614
C 471.89 507.874 485.18 513.984 500.548 515.613
C 517.636 517.424 535.862 515.168 551.175 506.975
C 556.923 503.899 563.64 500.589 568.414 496.089
C 569.786 494.796 570.975 493.416 572.161 491.954
C 572.563 491.458 573.279 490.438 574.028 490.506
C 574.285 490.53 574.795 490.845 575.105 490.913
C 574.325 494.425 573.88 498.039 573.454 501.609
C 573.339 502.57 572.809 504.598 573.409 505.383
C 572.391 507.153 572.921 509.852 572.573 511.841
C 570.924 514.515 568.37 516.571 565.991 518.579
C 559.715 523.875 551.982 527.92 544.341 530.839
C 525.127 538.182 504.108 538.581 484.422 533.043
C 471.004 529.268 458.414 522.203 449.943 510.96
C 449.034 509.191 448.659 507.403 448.377 505.439
C 447.303 499.704 446.928 493.836 445.756 488.108
C 445.301 485.884 444.023 483.705 443.192 481.6
C 442.984 481.073 442.227 479.72 443.02 479.475 Z"
opacity="1" fill="rgb(1,4,16)" fill-rule="evenodd" />
<path d="
M 575.625 488.396
C 575.526 489.255 575.255 490.064 575.105 490.913
C 574.795 490.845 574.285 490.53 574.028 490.506
C 573.279 490.438 572.563 491.458 572.161 491.954
C 570.975 493.416 569.786 494.796 568.414 496.089
C 563.64 500.589 556.923 503.899 551.175 506.975
C 535.862 515.168 517.636 517.424 500.548 515.613
C 485.18 513.984 471.89 507.874 459.048 499.614
C 455.833 497.547 452.835 495.029 450.5 491.996
C 450.292 491.726 448.29 489.822 448.484 489.593
C 449.291 488.641 452.392 491.26 453.215 491.761
C 458.256 494.828 463.274 497.828 468.673 500.21
C 472.112 501.728 475.838 502.585 479.466 503.509
C 486.263 505.241 493.055 506.742 500.038 507.512
C 502.716 507.807 505.421 507.725 508.095 507.985
C 517.84 508.935 528.16 507.186 537.607 504.944
C 543.977 503.432 550.19 502.025 556.138 499.197
C 561.056 496.858 565.816 493.962 570.543 491.284
C 571.777 490.584 573.04 489.91 574.263 489.196
C 574.585 489.008 575.253 488.241 575.625 488.396 Z"
opacity="1" fill="rgb(37,42,55)" fill-rule="evenodd" />
<path d="
M 449.943 510.96
C 458.414 522.203 471.004 529.268 484.422 533.043
C 504.108 538.581 525.127 538.182 544.341 530.839
C 551.982 527.92 559.715 523.875 565.991 518.579
C 568.37 516.571 570.924 514.515 572.573 511.841
C 572.742 513.239 572.299 514.146 572.3 515.548
C 572.301 519.732 572.324 523.928 572.34 528.115
C 569.631 529.948 567.551 533.114 564.953 535.207
C 559.398 539.682 552.663 543.217 546.12 546.005
C 521.434 556.522 491.12 554.874 467.81 541.915
C 464.563 540.11 461.189 538.421 458.218 536.167
C 455.218 533.891 453.08 531.017 450.472 528.385
C 449.211 524.611 449.953 520.57 449.498 516.617
C 449.34 515.244 449.188 513.822 449.225 512.439
C 449.242 511.814 449.112 510.211 449.943 510.96 Z"
opacity="1" fill="rgb(54,61,74)" fill-rule="evenodd" />
<path d="
M 450.472 528.385
C 453.08 531.017 455.218 533.891 458.218 536.167
C 461.189 538.421 464.563 540.11 467.81 541.915
C 491.12 554.874 521.434 556.522 546.12 546.005
C 552.663 543.217 559.398 539.682 564.953 535.207
C 567.551 533.114 569.631 529.948 572.34 528.115
C 572.997 530.453 572.491 533.098 572.461 535.491
C 572.412 539.369 572.527 543.245 572.555 547.133
C 572.566 548.666 571.979 553.311 573.995 553.312
C 572.698 553.945 570.976 553.706 569.567 553.865
C 566.39 554.223 563.181 554.549 559.986 554.719
C 557.98 554.841 555.979 554.857 553.971 554.913
C 548.036 555.781 541.79 555.701 535.8 555.785
C 529.697 555.87 523.616 556.222 517.502 556.247
C 494.949 556.341 472.464 555.558 449.997 553.812
C 448.887 553.06 449.621 549.791 449.671 548.635
C 449.878 543.766 449.771 538.882 449.622 534.012
C 449.579 532.607 448.971 528.939 450.472 528.385 Z"
opacity="1" fill="rgb(2,5,16)" fill-rule="evenodd" />
<path d="
M 602.563 367.469
C 602.215 368.222 602.281 369.118 602.225 369.929
C 602.203 370.089 602.182 370.249 602.16 370.409
C 601.339 371.734 600.804 373.884 600.289 375.389
C 599.983 376.074 599.551 376.641 599.191 377.291
C 598.589 377.897 598.077 378.917 597.347 379.364
C 596.708 379.755 596.155 379.104 595.413 379.586
C 593.114 381.081 591.064 382.848 588.648 384.195
C 584.073 386.746 578.106 388.071 572.979 388.87
C 571.342 389.126 570.222 389.976 568.476 390.08
C 563.34 390.388 558.077 389.197 552.967 388.854
C 550.76 388.474 548.578 386.99 546.764 385.743
C 537.664 379.488 535.384 366.932 539.72 356.977
C 543.371 348.595 550.01 341.877 558.568 338.486
C 571.766 333.257 588.124 337.928 596.82 348.924
C 601.309 354.599 602.683 360.328 602.563 367.469 Z"
opacity="1" fill="rgb(2,163,235)" fill-rule="evenodd" />
<path d="
M 552.967 388.854
C 558.077 389.197 563.34 390.388 568.476 390.08
C 570.222 389.976 571.342 389.126 572.979 388.87
C 578.106 388.071 584.073 386.746 588.648 384.195
C 591.064 382.848 593.114 381.081 595.413 379.586
C 596.155 379.104 596.708 379.755 597.347 379.364
C 598.077 378.917 598.589 377.897 599.191 377.291
C 597.297 380.17 594.315 382.326 591.411 384.082
C 583.72 388.734 573.883 390.312 564.99 390.323
C 561.419 390.328 556.065 391.064 552.967 388.854 Z"
opacity="1" fill="rgb(35,108,138)" fill-rule="evenodd" />
<path d="
M 572.573 511.841
C 572.921 509.852 572.391 507.153 573.409 505.383
C 582.286 505.519 591.251 506.989 600.047 508.085
C 619.611 510.522 640.46 513.124 660.125 510.445
C 668.738 509.271 677.314 508.373 685.461 505.089
C 688.626 503.813 692.878 501.98 694.879 499.061
C 695.762 497.773 695.21 495.112 696.54 494.364
C 699.272 496.184 702.123 497.741 704.226 500.344
C 705.009 501.312 705.673 502.439 706.117 503.603
C 709.702 513.008 699.093 520.026 692.223 523.915
C 690.807 524.717 689.362 525.498 687.903 526.218
C 685.919 527.196 683.939 528.192 681.9 529.052
C 663.212 536.928 643.558 541.675 623.754 545.781
C 612.222 548.172 600.706 549.952 589.033 551.487
C 584.041 552.143 579.026 553.022 573.995 553.312
C 571.979 553.311 572.566 548.666 572.555 547.133
C 572.527 543.245 572.412 539.369 572.461 535.491
C 572.491 533.098 572.997 530.453 572.34 528.115
C 572.324 523.928 572.301 519.732 572.3 515.548
C 572.299 514.146 572.742 513.239 572.573 511.841 Z"
opacity="1" fill="rgb(34,40,54)" fill-rule="evenodd" />
<path d="
M 575.105 490.913
C 575.255 490.064 575.526 489.255 575.625 488.396
C 575.996 485.908 577.012 483.255 577.854 480.886
C 578.774 479.238 583.287 478.818 585.096 478.195
C 588.054 477.177 590.976 476.04 593.901 474.932
C 595.505 474.324 597.258 473.434 598.973 473.257
C 601.535 472.992 604.331 473.73 606.855 474.122
C 628.161 477.433 649.462 479.713 670.435 484.937
C 676.938 486.557 683.532 488.389 689.729 490.955
C 692.001 491.895 694.653 492.735 696.54 494.364
C 695.21 495.112 695.762 497.773 694.879 499.061
C 692.878 501.98 688.626 503.813 685.461 505.089
C 677.314 508.373 668.738 509.271 660.125 510.445
C 640.46 513.124 619.611 510.522 600.047 508.085
C 591.251 506.989 582.286 505.519 573.409 505.383
C 572.809 504.598 573.339 502.57 573.454 501.609
C 573.88 498.039 574.325 494.425 575.105 490.913 Z"
opacity="1" fill="rgb(104,110,121)" fill-rule="evenodd" />
<path d="
M 701.874 550.829
C 700.544 553.366 700.982 557.538 700.485 560.38
C 699.202 567.722 697.859 575.053 696.598 582.4
C 693.03 603.191 688.318 623.827 683.376 644.33
C 676.597 672.449 668.477 700.602 658.301 727.686
C 654.59 737.563 650.833 747.423 646.818 757.182
C 645.713 759.867 644.488 762.5 643.379 765.184
C 642.791 766.609 642.002 767.837 641.823 769.399
C 638.835 773.604 636.192 777.985 632.995 782.061
C 623.078 794.704 610.905 805.924 597.975 815.401
C 593.087 818.984 588.145 822.863 582.759 825.678
C 584.268 821.143 587.379 816.653 589.527 812.276
C 593.611 803.955 597.567 795.564 601.179 787.027
C 612.494 760.272 621.925 732.69 630.307 704.892
C 638.349 678.226 645.156 651.226 651.099 624.022
C 653.131 614.725 655.147 605.404 657.636 596.218
C 659.492 589.369 661.557 582.301 665.774 576.469
C 674.937 563.799 689.002 558.691 701.874 550.829 Z"
opacity="1" fill="rgb(167,171,178)" fill-rule="evenodd" />
<path d="
M 602.16 370.409
C 601.85 372.103 601.308 373.979 600.289 375.389
C 600.804 373.884 601.339 371.734 602.16 370.409 Z"
opacity="1" fill="rgb(35,108,138)" fill-rule="evenodd" />
<path d="
M 602.563 367.469
C 602.543 368.312 602.515 369.128 602.225 369.929
C 602.281 369.118 602.215 368.222 602.563 367.469 Z"
opacity="1" fill="rgb(35,108,138)" fill-rule="evenodd" />
<path d="
M 701.874 550.829
C 703.67 549.751 705.294 548.334 706.95 547.058
C 716.176 539.949 724.242 532.293 730.348 522.253
C 730.771 521.459 731.035 520.565 731.638 519.883
C 728.757 538.073 726.041 556.321 721.956 574.323
C 711.259 621.457 696.245 668.49 674.928 711.949
C 667.847 726.385 660.252 740.662 651.934 754.426
C 649.761 758.022 647.617 761.665 645.154 765.073
C 644.115 766.51 643.321 768.372 641.823 769.399
C 642.002 767.837 642.791 766.609 643.379 765.184
C 644.488 762.5 645.713 759.867 646.818 757.182
C 650.833 747.423 654.59 737.563 658.301 727.686
C 668.477 700.602 676.597 672.449 683.376 644.33
C 688.318 623.827 693.03 603.191 696.598 582.4
C 697.859 575.053 699.202 567.722 700.485 560.38
C 700.982 557.538 700.544 553.366 701.874 550.829 Z"
opacity="1" fill="rgb(219,223,227)" fill-rule="evenodd" />
<path d="
M 666.03 316.4
C 667.633 317.149 671.062 318.393 672.008 319.888
C 674.021 330.97 673.711 342.41 676.051 353.453
C 676.754 356.773 678.835 359.17 680.143 362.191
C 680.565 363.169 680.335 364.216 680.652 365.219
C 682.733 365.437 684.921 363.298 686.876 363.83
C 687.927 364.973 687.888 367.159 687.846 368.598
C 687.75 371.899 687.814 375.213 687.812 378.515
C 687.798 380.512 687.8 382.508 687.817 384.505
C 687.858 388.964 688.141 393.557 687.824 398.003
C 687.707 400.082 684.661 401.173 683.107 402.211
C 679.58 404.567 676.029 406.937 672.423 409.165
C 670.707 410.225 668.919 411.745 667.003 412.39
C 667.11 404.644 667.428 396.748 666.961 388.996
C 666.63 372.742 666.718 356.482 666.368 340.232
C 666.251 334.798 666.19 329.361 665.844 323.935
C 665.714 321.902 665.571 319.881 665.271 317.866
C 665.23 317.592 665.046 316.174 665.167 316.086
C 665.415 315.907 665.742 316.296 666.03 316.4 Z"
opacity="1" fill="rgb(2,4,15)" fill-rule="evenodd" />
<path d="
M 672.008 319.888
C 674.143 320.448 676.389 322.39 678.213 323.616
C 681.339 325.718 685.109 327.465 687.763 330.174
C 688.174 335.712 687.761 341.444 687.797 347.003
C 687.844 354.406 688.276 361.814 688.118 369.198
C 688.078 371.43 688.092 373.662 688.047 375.894
C 688.031 376.693 688.164 377.776 687.812 378.515
C 687.814 375.213 687.75 371.899 687.846 368.598
C 687.888 367.159 687.927 364.973 686.876 363.83
C 684.921 363.298 682.733 365.437 680.652 365.219
C 680.335 364.216 680.565 363.169 680.143 362.191
C 678.835 359.17 676.754 356.773 676.051 353.453
C 673.711 342.41 674.021 330.97 672.008 319.888 Z"
opacity="1" fill="rgb(95,98,109)" fill-rule="evenodd" />

</svg>